HIERARCHY
ROOT hips
{
	OFFSET -0.003675 0.299928 -0.021708
	CHANNELS 6 Xposition Yposition Zposition Xrotation Yrotation Zrotation
	JOINT LowerBack
	{
		OFFSET 0.000919 0.177588 0.009275
		CHANNELS 3 Xrotation Yrotation Zrotation
		JOINT spine
		{
			OFFSET 0.000919 0.177588 0.009275
			CHANNELS 3 Xrotation Yrotation Zrotation
			JOINT chest
			{
				OFFSET 0.000456 0.100015 0.004638
				CHANNELS 3 Xrotation Yrotation Zrotation
				JOINT neck
				{
					OFFSET 0.000456 0.100015 0.004638
					CHANNELS 3 Xrotation Yrotation Zrotation
					JOINT head
					{
						OFFSET 0.000924 0.155147 0.009274
						CHANNELS 6 Xposition Yposition Zposition Xrotation Yrotation Zrotation
						End Site
						{
							OFFSET 0.000000 0.153400 0.000000
						}
					}
				}
				JOINT shoulder.L
				{
					OFFSET 0.019937 0.078966 0.057518
					CHANNELS 6 Xposition Yposition Zposition Yrotation Xrotation Zrotation
					JOINT upper_arm.L
					{
						OFFSET 0.177024 -0.020465 -0.095062
						CHANNELS 6 Xposition Yposition Zposition Xrotation Yrotation Zrotation
						JOINT forearm.L
						{
							OFFSET 0.247100 -0.135500 -0.061800
							CHANNELS 3 Xrotation Yrotation Zrotation
							JOINT hand.L
							{
								OFFSET 0.217000 -0.143000 0.039300
								CHANNELS 3 Xrotation Yrotation Zrotation
								JOINT palm.01.L
								{
									OFFSET 0.021770 -0.038291 0.012954
									CHANNELS 6 Xposition Yposition Zposition Yrotation Xrotation Zrotation
									JOINT f_index.01.L
									{
										OFFSET 0.053215 -0.044137 0.008236
										CHANNELS 3 Xrotation Yrotation Zrotation
										JOINT f_index.02.L
										{
											OFFSET 0.036108 -0.024723 -0.010656
											CHANNELS 3 Xrotation Yrotation Zrotation
											JOINT f_index.03.L
											{
												OFFSET 0.021342 -0.014948 -0.010846
												CHANNELS 3 Xrotation Yrotation Zrotation
												End Site
												{
													OFFSET 0.015600 -0.009860 -0.013421
												}
											}
										}
									}
									JOINT thumb.01.L
									{
										OFFSET -0.009090 -0.002348 -0.024223
										CHANNELS 6 Xposition Yposition Zposition Xrotation Yrotation Zrotation
										JOINT thumb.02.L
										{
											OFFSET 0.019713 -0.035076 -0.011120
											CHANNELS 3 Xrotation Yrotation Zrotation
											JOINT thumb.03.L
											{
												OFFSET 0.024877 -0.021748 -0.005176
												CHANNELS 3 Xrotation Yrotation Zrotation
												End Site
												{
													OFFSET 0.016125 -0.013029 -0.001569
												}
											}
										}
									}
								}
								JOINT palm.02.L
								{
									OFFSET 0.032823 -0.025104 0.012281
									CHANNELS 6 Xposition Yposition Zposition Yrotation Xrotation Zrotation
									JOINT f_middle.01.L
									{
										OFFSET 0.055723 -0.038469 0.008037
										CHANNELS 3 Xrotation Yrotation Zrotation
										JOINT f_middle.02.L
										{
											OFFSET 0.038167 -0.027473 -0.015582
											CHANNELS 3 Xrotation Yrotation Zrotation
											JOINT f_middle.03.L
											{
												OFFSET 0.021707 -0.016587 -0.017037
												CHANNELS 3 Xrotation Yrotation Zrotation
												End Site
												{
													OFFSET 0.014112 -0.010584 -0.014294
												}
											}
										}
									}
								}
								JOINT palm.03.L
								{
									OFFSET 0.039230 -0.011402 0.008390
									CHANNELS 6 Xposition Yposition Zposition Yrotation Xrotation Zrotation
									JOINT f_ring.01.L
									{
										OFFSET 0.061796 -0.031470 0.007910
										CHANNELS 3 Xrotation Yrotation Zrotation
										JOINT f_ring.02.L
										{
											OFFSET 0.033092 -0.023401 -0.019127
											CHANNELS 3 Xrotation Yrotation Zrotation
											JOINT f_ring.03.L
											{
												OFFSET 0.021392 -0.015362 -0.017824
												CHANNELS 3 Xrotation Yrotation Zrotation
												End Site
												{
													OFFSET 0.008670 -0.007297 -0.014686
												}
											}
										}
									}
								}
								JOINT palm.04.L
								{
									OFFSET 0.043417 0.002450 0.002889
									CHANNELS 6 Xposition Yposition Zposition Yrotation Xrotation Zrotation
									JOINT f_pinky.01.L
									{
										OFFSET 0.069986 -0.026156 0.003627
										CHANNELS 3 Xrotation Yrotation Zrotation
										JOINT f_pinky.02.L
										{
											OFFSET 0.018520 -0.012813 -0.016429
											CHANNELS 3 Xrotation Yrotation Zrotation
											JOINT f_pinky.03.L
											{
												OFFSET 0.013822 -0.009796 -0.014947
												CHANNELS 3 Xrotation Yrotation Zrotation
												End Site
												{
													OFFSET 0.007238 -0.006103 -0.011657
												}
											}
										}
									}
								}
							}
						}
					}
				}
				JOINT shoulder.R
				{
					OFFSET -0.016662 0.078957 0.057696
					CHANNELS 6 Xposition Yposition Zposition Yrotation Xrotation Zrotation
					JOINT upper_arm.R
					{
						OFFSET -0.176972 -0.020537 -0.095144
						CHANNELS 6 Xposition Yposition Zposition Xrotation Yrotation Zrotation
						JOINT forearm.R
						{
							OFFSET -0.247100 -0.135500 -0.061800
							CHANNELS 3 Xrotation Yrotation Zrotation
							JOINT hand.R
							{
								OFFSET -0.217000 -0.143000 0.039300
								CHANNELS 3 Xrotation Yrotation Zrotation
								JOINT palm.01.R
								{
									OFFSET -0.021773 -0.038278 0.012988
									CHANNELS 6 Xposition Yposition Zposition Yrotation Xrotation Zrotation
									JOINT f_index.01.R
									{
										OFFSET -0.053212 -0.044139 0.008249
										CHANNELS 3 Xrotation Yrotation Zrotation
										JOINT f_index.02.R
										{
											OFFSET -0.036049 -0.024835 -0.010634
											CHANNELS 3 Xrotation Yrotation Zrotation
											JOINT f_index.03.R
											{
												OFFSET -0.021371 -0.014881 -0.010866
												CHANNELS 3 Xrotation Yrotation Zrotation
												End Site
												{
													OFFSET -0.015584 -0.009883 -0.013422
												}
											}
										}
									}
									JOINT thumb.01.R
									{
										OFFSET 0.009113 -0.002381 -0.024211
										CHANNELS 6 Xposition Yposition Zposition Xrotation Yrotation Zrotation
										JOINT thumb.02.R
										{
											OFFSET -0.019694 -0.035097 -0.011088
											CHANNELS 3 Xrotation Yrotation Zrotation
											JOINT thumb.03.R
											{
												OFFSET -0.024867 -0.021762 -0.005168
												CHANNELS 3 Xrotation Yrotation Zrotation
												End Site
												{
													OFFSET -0.016120 -0.013036 -0.001565
												}
											}
										}
									}
								}
								JOINT palm.02.R
								{
									OFFSET -0.032828 -0.025095 0.012286
									CHANNELS 6 Xposition Yposition Zposition Yrotation Xrotation Zrotation
									JOINT f_middle.01.R
									{
										OFFSET -0.055721 -0.038472 0.008040
										CHANNELS 3 Xrotation Yrotation Zrotation
										JOINT f_middle.02.R
										{
											OFFSET -0.038101 -0.027593 -0.015557
											CHANNELS 3 Xrotation Yrotation Zrotation
											JOINT f_middle.03.R
											{
												OFFSET -0.021730 -0.016530 -0.017054
												CHANNELS 3 Xrotation Yrotation Zrotation
												End Site
												{
													OFFSET -0.014096 -0.010608 -0.014293
												}
											}
										}
									}
								}
								JOINT palm.03.R
								{
									OFFSET -0.039192 -0.011488 0.008390
									CHANNELS 6 Xposition Yposition Zposition Yrotation Xrotation Zrotation
									JOINT f_ring.01.R
									{
										OFFSET -0.061839 -0.031387 0.007876
										CHANNELS 3 Xrotation Yrotation Zrotation
										JOINT f_ring.02.R
										{
											OFFSET -0.033068 -0.023437 -0.019125
											CHANNELS 3 Xrotation Yrotation Zrotation
											JOINT f_ring.03.R
											{
												OFFSET -0.021371 -0.015393 -0.017822
												CHANNELS 3 Xrotation Yrotation Zrotation
												End Site
												{
													OFFSET -0.008654 -0.007321 -0.014684
												}
											}
										}
									}
								}
								JOINT palm.04.R
								{
									OFFSET -0.043421 0.002443 0.002845
									CHANNELS 6 Xposition Yposition Zposition Yrotation Xrotation Zrotation
									JOINT f_pinky.01.R
									{
										OFFSET -0.069983 -0.026169 0.003599
										CHANNELS 3 Xrotation Yrotation Zrotation
										JOINT f_pinky.02.R
										{
											OFFSET -0.018501 -0.012842 -0.016428
											CHANNELS 3 Xrotation Yrotation Zrotation
											JOINT f_pinky.03.R
											{
												OFFSET -0.013806 -0.009821 -0.014946
												CHANNELS 3 Xrotation Yrotation Zrotation
												End Site
												{
													OFFSET -0.007226 -0.006121 -0.011655
												}
											}
										}
									}
								}
							}
						}
					}
				}
			}
		}
	}
	JOINT pelvis.L
	{
		OFFSET 0.000000 0.000000 0.000000
		CHANNELS 6 Xposition Yposition Zposition Xrotation Yrotation Zrotation
		JOINT thigh.L
		{
			OFFSET 0.101675 0.001054 -0.000000
			CHANNELS 3 Xrotation Yrotation Zrotation
			JOINT shin.L
			{
				OFFSET 0.000000 -0.534800 0.041000
				CHANNELS 3 Xrotation Yrotation Zrotation
				JOINT foot.L
				{
					OFFSET 0.000000 -0.452000 -0.044800
					CHANNELS 3 Xrotation Yrotation Zrotation
					JOINT toe.L
					{
						OFFSET -0.000000 -0.068500 0.109600
						CHANNELS 3 Xrotation Yrotation Zrotation
						End Site
						{
							OFFSET -0.000000 0.000000 0.067200
						}
					}
				}
				JOINT heel.L
				{
					OFFSET 0.000000 -0.452000 -0.044800
					CHANNELS 3 Xrotation Yrotation Zrotation
					JOINT heel.02.L
					{
						OFFSET -0.038000 -0.085200 0.016200
						CHANNELS 6 Xposition Yposition Zposition Xrotation Yrotation Zrotation
						End Site
						{
							OFFSET 0.080000 -0.000000 0.000000
						}
					}
				}
			}
		}
	}
	JOINT pelvis.R
	{
		OFFSET 0.000000 0.000000 0.000000
		CHANNELS 6 Xposition Yposition Zposition Xrotation Yrotation Zrotation
		JOINT thigh.R
		{
			OFFSET -0.094325 0.001054 0.000000
			CHANNELS 3 Xrotation Yrotation Zrotation
			JOINT shin.R
			{
				OFFSET 0.000000 -0.534800 0.041000
				CHANNELS 3 Xrotation Yrotation Zrotation
				JOINT foot.R
				{
					OFFSET 0.000000 -0.452000 -0.044800
					CHANNELS 3 Xrotation Yrotation Zrotation
					JOINT toe.R
					{
						OFFSET -0.000000 -0.068500 0.109600
						CHANNELS 3 Xrotation Yrotation Zrotation
						End Site
						{
							OFFSET -0.000000 0.000000 0.067200
						}
					}
				}
				JOINT heel.R
				{
					OFFSET 0.000000 -0.452000 -0.044800
					CHANNELS 3 Xrotation Yrotation Zrotation
					JOINT heel.02.R
					{
						OFFSET 0.038000 -0.085200 0.016200
						CHANNELS 6 Xposition Yposition Zposition Xrotation Yrotation Zrotation
						End Site
						{
							OFFSET -0.080000 0.000000 -0.000000
						}
					}
				}
			}
		}
	}
}
MOTION
Frames: 4
Frame Time: 0.041667
-0.002178 0.195283 -0.024023 -53.366283 11.731318 91.616722 0.000000 0.000001 0.000001 -0.000000 -0.000000 -0.000000 -0.000001 0.000002 -0.000001 0.000000 0.000002 -0.000000 0.000924 0.155147 0.009274 6.267767 -0.048181 -28.626158 0.019937 0.078966 0.057518 79.312607 30.145743 32.493648 0.177024 -0.020465 -0.095062 -44.872099 -12.004589 -23.772026 -12.783884 -6.097256 -28.063562 -0.000003 -0.000002 -0.000002 0.021770 -0.038291 0.012954 -0.000001 -0.000002 -0.000000 0.000000 -0.000000 0.000005 -0.000000 -0.000001 0.000013 -0.000001 -0.000001 -0.000003 -0.009090 -0.002348 -0.024223 -0.000000 -0.000002 0.000003 0.000000 -0.000000 0.000001 0.000000 0.000001 -0.000002 0.032823 -0.025104 0.012281 -0.000000 -0.000001 0.000000 0.000000 0.000000 -0.000002 -0.000001 -0.000002 0.000001 -0.000003 0.000004 -0.000004 0.039230 -0.011402 0.008390 -0.000000 -0.000000 -0.000001 -0.000002 0.000004 0.000001 0.000001 0.000006 0.000001 -0.000000 -0.000004 0.000004 0.043417 0.002450 0.002889 -0.000002 -0.000000 -0.000003 -0.000001 -0.000005 -0.000000 -0.000003 0.000000 -0.000005 -0.000004 -0.000003 -0.000001 -0.016662 0.078956 0.057696 -58.920258 17.102404 -42.503984 -0.176972 -0.020537 -0.095144 -16.176822 -20.018098 121.323721 35.185508 -25.652107 27.080298 0.000003 -0.000001 0.000004 -0.021773 -0.038278 0.012988 0.000002 -0.000001 -0.000003 -0.000002 0.000001 0.000001 -0.000002 0.000001 -0.000004 0.000002 0.000000 -0.000001 0.009114 -0.002381 -0.024212 -0.000000 -0.000003 0.000002 -0.000000 -0.000001 0.000000 0.000000 -0.000006 -0.000006 -0.032828 -0.025095 0.012286 0.000004 0.000001 -0.000008 -0.000002 0.000003 -0.000003 -0.000001 0.000000 -0.000006 0.000001 -0.000002 -0.000003 -0.039192 -0.011488 0.008390 0.000003 0.000002 -0.000004 0.000002 0.000003 -0.000003 -0.000000 -0.000000 -0.000000 -0.000001 0.000003 -0.000002 -0.043421 0.002443 0.002845 0.000003 0.000001 -0.000003 -0.000002 0.000002 -0.000001 -0.000003 -0.000003 0.000000 -0.000000 0.000003 0.000000 -0.000000 0.000000 -0.000000 -3.553597 -4.968163 36.274100 -13.254412 0.578071 8.917659 26.641023 0.821996 -8.321281 0.000000 0.000005 -0.000001 -0.000001 -0.000002 -0.000002 0.000003 0.000003 -0.000001 -0.038000 -0.085200 0.016200 -0.000000 -0.000006 0.000001 -0.000000 0.000000 -0.000000 -3.721650 -5.093665 37.493565 -95.085058 0.479792 1.349607 33.092239 -0.043868 0.443121 0.000003 0.000004 0.000001 -0.000001 -0.000000 0.000003 0.000005 0.000004 0.000001 0.038000 -0.085200 0.016200 -0.000001 0.000003 -0.000001 
-0.022395 0.189725 -0.013660 -100.821495 10.868502 96.751767 -0.000001 0.000001 -0.000001 -0.000001 0.000000 -0.000000 0.000001 -0.000001 -0.000001 0.000001 0.000000 -0.000001 0.000924 0.155147 0.009274 -20.881410 0.078598 14.362628 0.019937 0.078966 0.057518 33.580977 6.860034 28.826950 0.177024 -0.020465 -0.095062 -14.952093 9.829377 -51.922524 2.595873 1.441580 -11.743628 -0.000000 -0.000003 0.000000 0.021770 -0.038291 0.012954 0.000003 -0.000000 -0.000000 0.000000 -0.000004 -0.000002 -0.000001 -0.000000 0.000005 -0.000002 0.000001 -0.000003 -0.009090 -0.002348 -0.024223 0.000002 0.000002 -0.000002 0.000001 -0.000001 -0.000001 -0.000003 0.000002 0.000003 0.032823 -0.025104 0.012281 0.000001 -0.000000 0.000005 0.000004 0.000003 -0.000007 -0.000003 0.000000 0.000001 0.000003 0.000003 0.000001 0.039230 -0.011402 0.008390 0.000002 0.000001 0.000004 -0.000001 -0.000003 0.000001 -0.000001 -0.000002 0.000003 0.000004 -0.000002 0.000003 0.043417 0.002450 0.002889 0.000000 -0.000001 -0.000003 -0.000000 0.000000 -0.000002 -0.000000 -0.000004 -0.000001 0.000002 -0.000001 0.000000 -0.016662 0.078957 0.057696 35.475364 7.731714 -61.911908 -0.176972 -0.020537 -0.095144 -73.329772 -25.752897 52.219091 -5.849221 5.736461 10.886480 -0.000002 -0.000000 -0.000003 -0.021773 -0.038278 0.012988 -0.000001 -0.000002 -0.000003 0.000005 0.000003 -0.000003 -0.000002 -0.000001 -0.000006 -0.000001 0.000004 0.000005 0.009114 -0.002381 -0.024212 0.000007 0.000001 0.000003 0.000002 -0.000001 0.000000 -0.000003 0.000001 -0.000003 -0.032828 -0.025095 0.012286 -0.000000 -0.000000 0.000001 0.000005 0.000002 -0.000006 0.000004 0.000000 0.000001 -0.000004 0.000000 -0.000003 -0.039192 -0.011488 0.008390 -0.000002 0.000003 -0.000000 0.000004 0.000000 -0.000003 0.000000 0.000002 -0.000000 -0.000000 -0.000002 -0.000005 -0.043421 0.002443 0.002844 -0.000001 -0.000001 0.000000 -0.000005 0.000006 -0.000004 0.000001 -0.000001 -0.000000 -0.000005 0.000007 -0.000004 0.000000 0.000000 0.000000 -2.603061 0.132134 -2.285417 -40.801870 1.259294 19.404581 12.484680 -2.950818 31.338885 0.000000 -0.000001 -0.000002 -0.000001 -0.000004 0.000001 0.000000 -0.000000 0.000002 -0.038000 -0.085200 0.016200 -0.000000 0.000000 -0.000001 0.000000 0.000000 0.000000 -2.542124 0.130326 -1.051370 -72.302231 -2.460229 -39.429077 -10.393127 0.565986 -5.719880 0.000000 0.000002 -0.000002 -0.000000 -0.000002 -0.000003 0.000007 -0.000002 -0.000001 0.038000 -0.085200 0.016200 0.000001 -0.000001 -0.000001 
-0.026551 0.188001 -0.011028 -117.311832 11.837276 100.018797 0.000002 -0.000002 -0.000000 -0.000000 0.000002 -0.000000 0.000000 0.000000 -0.000001 0.000002 0.000001 -0.000001 0.000924 0.155148 0.009274 -38.155452 0.182760 -2.097025 0.019937 0.078966 0.057518 29.074575 3.075484 23.773274 0.177024 -0.020465 -0.095062 -23.578750 6.287112 -44.233726 24.115750 20.304317 -18.724470 0.000001 -0.000003 -0.000002 0.021770 -0.038291 0.012954 0.000002 0.000002 -0.000001 -0.000001 -0.000002 -0.000002 0.000002 -0.000003 0.000003 -0.000000 0.000002 0.000006 -0.009090 -0.002348 -0.024224 -0.000002 -0.000001 -0.000001 0.000002 0.000000 0.000001 -0.000000 -0.000000 -0.000001 0.032823 -0.025104 0.012281 0.000000 0.000002 0.000007 0.000001 -0.000000 -0.000009 -0.000004 -0.000003 0.000001 -0.000000 -0.000002 -0.000000 0.039230 -0.011402 0.008390 -0.000000 0.000001 0.000001 0.000004 0.000000 -0.000002 0.000001 0.000003 -0.000001 -0.000003 0.000002 0.000003 0.043417 0.002450 0.002889 0.000000 0.000001 -0.000005 -0.000003 -0.000006 -0.000002 0.000001 0.000001 0.000001 -0.000002 -0.000003 0.000002 -0.016662 0.078957 0.057696 49.478368 7.279966 -50.439417 -0.176972 -0.020537 -0.095144 -46.463926 0.791127 33.416895 -1.737443 14.223934 -24.671912 0.000003 -0.000001 0.000000 -0.021773 -0.038278 0.012988 0.000000 -0.000004 -0.000003 -0.000003 0.000001 -0.000001 0.000002 -0.000002 -0.000005 -0.000009 0.000003 0.000002 0.009113 -0.002381 -0.024211 0.000002 -0.000004 0.000000 0.000002 -0.000001 0.000002 0.000003 -0.000001 -0.000001 -0.032828 -0.025095 0.012286 -0.000001 0.000000 -0.000006 -0.000004 0.000000 -0.000001 -0.000001 0.000002 -0.000001 -0.000003 0.000006 -0.000003 -0.039192 -0.011488 0.008390 -0.000000 0.000004 -0.000000 0.000003 0.000005 0.000000 -0.000003 0.000000 -0.000000 0.000000 0.000006 -0.000004 -0.043420 0.002443 0.002844 -0.000005 -0.000003 -0.000002 -0.000001 0.000000 0.000001 -0.000007 -0.000006 -0.000001 0.000000 0.000000 0.000004 -0.000000 0.000000 -0.000000 -2.869924 0.848838 -9.128416 -53.952091 1.527122 23.848895 31.724955 -2.557746 26.790104 -0.000002 0.000001 0.000002 -0.000004 -0.000002 0.000000 -0.000002 0.000001 0.000004 -0.038000 -0.085200 0.016200 -0.000000 0.000002 0.000002 -0.000000 0.000000 -0.000000 -2.772678 0.834247 -7.895663 -61.948860 -3.023548 -49.570678 -3.221994 1.489800 -15.212354 -0.000002 -0.000001 0.000001 0.000002 0.000001 0.000001 0.000003 0.000003 -0.000002 0.038000 -0.085200 0.016200 -0.000002 0.000004 0.000000 
-0.027362 0.187832 -0.008096 -125.053305 11.708863 102.125296 0.000002 0.000002 0.000000 -0.000001 -0.000001 0.000001 0.000002 -0.000001 0.000001 0.000001 0.000001 -0.000001 0.000924 0.155148 0.009274 -37.653931 0.171250 -13.684988 0.019937 0.078966 0.057518 22.883299 1.812596 27.207953 0.177024 -0.020465 -0.095062 -18.791814 7.966412 -44.117794 26.596439 17.522794 -24.647057 -0.000003 0.000001 0.000001 0.021770 -0.038291 0.012954 -0.000001 -0.000002 -0.000002 0.000001 -0.000001 -0.000004 -0.000001 -0.000004 0.000006 -0.000004 0.000002 0.000004 -0.009090 -0.002348 -0.024223 0.000002 -0.000001 -0.000003 -0.000001 0.000000 -0.000000 -0.000003 0.000003 0.000001 0.032823 -0.025104 0.012281 -0.000002 -0.000001 -0.000001 -0.000001 -0.000002 -0.000005 -0.000003 -0.000004 -0.000000 -0.000002 -0.000002 0.000004 0.039230 -0.011402 0.008390 -0.000001 -0.000001 0.000001 -0.000000 0.000000 -0.000002 -0.000003 -0.000001 -0.000001 -0.000001 -0.000002 0.000003 0.043417 0.002450 0.002889 -0.000002 -0.000000 -0.000002 0.000002 -0.000006 -0.000002 -0.000001 0.000004 -0.000003 -0.000000 -0.000001 -0.000001 -0.016662 0.078957 0.057696 42.183088 4.338407 -47.296458 -0.176972 -0.020537 -0.095144 -44.466140 1.327858 32.400136 -5.882583 19.007510 -17.685803 0.000003 0.000002 -0.000002 -0.021773 -0.038278 0.012988 -0.000001 -0.000000 -0.000002 -0.000001 -0.000001 -0.000003 -0.000005 -0.000004 -0.000001 0.000005 0.000002 0.000007 0.009113 -0.002381 -0.024212 0.000003 -0.000005 -0.000001 -0.000003 0.000000 0.000004 -0.000003 -0.000001 -0.000003 -0.032828 -0.025095 0.012286 -0.000002 -0.000003 -0.000003 0.000002 0.000003 0.000001 0.000000 0.000003 -0.000000 0.000006 0.000000 -0.000000 -0.039192 -0.011488 0.008390 -0.000004 0.000001 -0.000000 -0.000001 0.000001 -0.000003 0.000001 -0.000000 0.000003 0.000005 0.000003 -0.000001 -0.043421 0.002443 0.002844 -0.000002 0.000000 0.000000 -0.000004 0.000003 -0.000002 0.000001 -0.000002 0.000004 0.000002 0.000000 -0.000003 0.000000 0.000000 0.000000 -2.853474 1.254765 -12.985276 -67.059842 2.010861 31.364942 48.195717 -1.460626 14.909417 0.000003 -0.000002 0.000001 -0.000003 -0.000001 0.000001 0.000002 -0.000001 0.000002 -0.038000 -0.085200 0.016200 -0.000002 -0.000001 0.000002 0.000000 0.000000 0.000000 -2.739176 1.229648 -11.753573 -57.631237 -3.148376 -51.873747 5.415631 1.718955 -17.624779 -0.000003 -0.000002 0.000001 0.000003 0.000001 0.000003 0.000002 -0.000000 -0.000001 0.038000 -0.085200 0.016200 -0.000000 -0.000001 0.000001 
